<?xml version="1.0" encoding="UTF-8" standalone="no"?>
<svg
   xmlns:dc="http://purl.org/dc/elements/1.1/"
   xmlns:cc="http://creativecommons.org/ns#"
   xmlns:rdf="http://www.w3.org/1999/02/22-rdf-syntax-ns#"
   xmlns:svg="http://www.w3.org/2000/svg"
   xmlns="http://www.w3.org/2000/svg"
   xmlns:sodipodi="http://sodipodi.sourceforge.net/DTD/sodipodi-0.dtd"
   xmlns:inkscape="http://www.inkscape.org/namespaces/inkscape"
   sodipodi:docname="brojsobe.svg"
   inkscape:version="1.0 (6e3e5246a0, 2020-05-07)"
   id="svg2318"
   version="1.1"
   viewBox="0 0 71.382881 18.653126"
   height="18.653126mm"
   width="71.382881mm">
  <defs
     id="defs2312">
    <linearGradient
       gradientTransform="matrix(0.26458333,0,0,0.26458333,-373.59805,-250.09172)"
       id="SVGID_1_"
       gradientUnits="userSpaceOnUse"
       x1="848.02832"
       y1="489.48141"
       x2="1059.0352"
       y2="489.48141">
      <stop
         offset="0"
         style="stop-color:#A092C6"
         id="stop1697" />
      <stop
         offset="0.9946"
         style="stop-color:#7A6DA5"
         id="stop1699" />
    </linearGradient>
    <linearGradient
       gradientTransform="matrix(0.26458333,0,0,0.26458333,-373.59805,-250.09172)"
       id="SVGID_2_"
       gradientUnits="userSpaceOnUse"
       x1="824.66412"
       y1="372.23929"
       x2="874.51581"
       y2="422.091">
      <stop
         offset="0"
         style="stop-color:#A092C6"
         id="stop1718" />
      <stop
         offset="0.9946"
         style="stop-color:#7A6DA5"
         id="stop1720" />
    </linearGradient>
    <linearGradient
       gradientTransform="matrix(0.26458333,0,0,0.26458333,-373.59805,-250.09172)"
       id="SVGID_3_"
       gradientUnits="userSpaceOnUse"
       x1="793.5"
       y1="303.41699"
       x2="864"
       y2="303.41699">
      <stop
         offset="0"
         style="stop-color:#A092C6"
         id="stop1727" />
      <stop
         offset="0.9946"
         style="stop-color:#7A6DA5"
         id="stop1729" />
    </linearGradient>
    <linearGradient
       y2="489.48141"
       x2="1059.0352"
       y1="489.48141"
       x1="848.02832"
       gradientUnits="userSpaceOnUse"
       id="SVGID_1_-3"
       gradientTransform="matrix(0.26458333,0,0,0.26458333,-373.15169,-228.95471)">
      <stop
         id="stop1697-6"
         style="stop-color:#A092C6"
         offset="0" />
      <stop
         id="stop1699-7"
         style="stop-color:#7A6DA5"
         offset="0.9946" />
    </linearGradient>
    <linearGradient
       gradientTransform="matrix(0.26458333,0,0,0.26458333,-325.00085,-253.88763)"
       id="SVGID_2_-4"
       gradientUnits="userSpaceOnUse"
       x1="824.66412"
       y1="372.23929"
       x2="874.51581"
       y2="422.091">
      <stop
         offset="0"
         style="stop-color:#A092C6"
         id="stop1718-7" />
      <stop
         offset="0.9946"
         style="stop-color:#7A6DA5"
         id="stop1720-6" />
    </linearGradient>
  </defs>
  <sodipodi:namedview
     inkscape:window-maximized="0"
     inkscape:window-y="38"
     inkscape:window-x="0"
     inkscape:window-height="2076"
     inkscape:window-width="1914"
     showgrid="false"
     inkscape:document-rotation="0"
     inkscape:current-layer="layer1"
     inkscape:document-units="mm"
     inkscape:cy="149.46116"
     inkscape:cx="49.884284"
     inkscape:zoom="1.979899"
     inkscape:pageshadow="2"
     inkscape:pageopacity="0.0"
     borderopacity="1.0"
     bordercolor="#666666"
     pagecolor="#ffffff"
     id="base" />
  <metadata
     id="metadata2315">
    <rdf:RDF>
      <cc:Work
         rdf:about="">
        <dc:format>image/svg+xml</dc:format>
        <dc:type
           rdf:resource="http://purl.org/dc/dcmitype/StillImage" />
        <dc:title></dc:title>
      </cc:Work>
    </rdf:RDF>
  </metadata>
  <g
     transform="translate(109.54006,158.13069)"
     id="layer1"
     inkscape:groupmode="layer"
     inkscape:label="Layer 1">
    <g
       transform="matrix(0.26458333,0,0,0.26458333,-373.59805,-250.09173)"
       id="g1708" />
    <g
       transform="matrix(0.26458333,0,0,0.26458333,-373.59805,-250.09173)"
       id="g1716" />
    <path
       style="stroke-width:0.264583"
       fill="#e9e6f4"
       d="m -45.592662,-156.49212 c -0.0032,0 -0.0056,2.6e-4 -0.0082,2.6e-4 v -2.6e-4 l -46.626459,-0.0257 -7.4729,-0.322 c 0,0 -4.114529,14.90001 -0.008,14.90001 0.003,0 -7.727149,0.37068 -7.724509,0.37068 v 0.008 h 36.700849 l 25.130656,-0.0233 v -0.008 c 0.0026,0 0.0053,2.7e-4 0.0082,2.7e-4 4.106598,0 7.43585,-3.33534 7.43585,-7.44987 2.65e-4,-4.11454 -3.328723,-7.45014 -7.435585,-7.45014 z"
       id="path1712" />
    <circle
       style="fill:url(#SVGID_2_-4);stroke-width:0.264583"
       fill="url(#SVGID_2_)"
       cx="-100.21349"
       cy="-148.80412"
       r="9.3265629"
       id="circle1723" />
    <path
       style="stroke-width:0.264583"
       fill="#e9e6f4"
       d="m -97.447291,-144.9457 -1.48405,-3.66554 c 0.58658,-0.38841 0.97155,-1.03531 0.97155,-1.76821 0,-1.18877 -1.01018,-2.15239 -2.256369,-2.15239 -1.24618,0 -2.25636,0.96388 -2.25636,2.15239 0,0.75538 0.40904,1.41896 1.02632,1.80313 l -1.69942,3.59119 z"
       id="path1725" />
    <g
       transform="matrix(0.26458333,0,0,0.26458333,-325.00085,-253.88762)"
       id="g1962">
      <g
         id="g1960">
        <g
           id="g1958">
          <g
             id="g1956">
            <g
               id="g1954">
              <path
                 fill="#cdc8e6"
                 d="m 875.873,402.145 c 0.024,0.138 0.024,0.352 0.035,0.452 0.053,-0.174 0.035,-0.331 -0.035,-0.452 z"
                 id="path1850" />
              <path
                 fill="#cdc8e6"
                 d="m 862.106,372.72 -0.168,-0.068 c 0.025,0.024 0.047,0.047 0.069,0.068 z"
                 id="path1852" />
              <path
                 fill="#cdc8e6"
                 d="m 862.006,372.72 h -0.354 c 0.456,0.153 0.455,0.102 0.354,0 z"
                 id="path1854" />
              <path
                 fill="#cdc8e6"
                 d="m 876.063,405.516 c -0.08,0.321 -0.139,0.646 -0.155,0.958 z"
                 id="path1856" />
              <path
                 fill="#cdc8e6"
                 d="m 877.553,402.181 c 0.034,-0.033 0.069,-0.098 0.112,-0.22 -0.048,0.067 -0.083,0.143 -0.112,0.22 z"
                 id="path1858" />
              <path
                 fill="#cdc8e6"
                 d="m 855.042,422.945 0.117,-0.09 c -0.063,0.031 -0.104,0.061 -0.117,0.09 z"
                 id="path1860" />
              <path
                 fill="#cdc8e6"
                 d="m 852.745,423.584 c -0.199,0.02 -0.372,0.049 -0.541,0.082 l -0.029,0.038 c 0.096,0.028 0.412,-0.071 0.57,-0.12 z"
                 id="path1862" />
              <path
                 fill="#cdc8e6"
                 d="m 853.717,423.637 -0.483,0.092 c 0.177,-0.024 0.336,-0.055 0.483,-0.092 z"
                 id="path1864" />
              <path
                 fill="#cdc8e6"
                 d="m 837.397,423.231 -0.136,0.106 c 0.093,-0.027 0.132,-0.064 0.136,-0.106 z"
                 id="path1866" />
              <path
                 fill="#cdc8e6"
                 d="m 855.508,422.624 c -0.127,0.067 -0.239,0.146 -0.35,0.23 0.198,-0.096 0.526,-0.196 0.35,-0.23 z"
                 id="path1868" />
              <path
                 fill="#cdc8e6"
                 d="m 875.815,402.054 c 0.026,0.027 0.041,0.06 0.058,0.09 -0.013,-0.089 -0.028,-0.141 -0.058,-0.09 z"
                 id="path1870" />
              <path
                 fill="#cdc8e6"
                 d="m 875.229,407.72 0.02,-0.044 c 0.062,-0.201 0.031,-0.126 -0.02,0.044 z"
                 id="path1872" />
              <path
                 fill="#cdc8e6"
                 d="m 849.348,369.625 -0.997,0.105 c 0.763,0.009 0.995,-0.039 0.997,-0.105 z"
                 id="path1874" />
              <path
                 fill="#cdc8e6"
                 d="m 863.224,420.028 c 0.537,0.218 -1.066,0.671 -0.772,1.013 0.52,-0.431 0.899,-0.749 1.289,-0.703 -0.34,0.497 -1.18,0.703 -1.236,1.156 0.014,0.022 0.794,-0.641 0.794,-0.641 0.65,-0.17 0.042,0.554 0.544,0.213 0.218,-0.463 0.895,-0.743 1.545,-1.11 0.655,-0.356 1.365,-0.684 1.722,-1 l -0.244,0.244 c 0,0 0.337,-0.164 0.66,-0.35 0.313,-0.201 0.626,-0.401 0.626,-0.401 0.019,-0.002 0.012,0.014 0.024,0.016 -0.001,-0.04 -0.001,-0.079 -0.014,-0.118 0.59,-0.212 1.609,-0.776 2.372,-1.776 0.033,-0.292 0.729,-0.985 1.301,-1.795 0.577,-0.805 1.171,-1.613 1.227,-1.916 -0.238,0.46 -0.505,0.817 -0.954,1.286 l -0.227,-0.297 c 0.69,-0.913 0.314,0.138 0.796,-0.869 -0.517,-0.127 -0.946,1.265 -1.477,1.88 0.088,-0.306 0.252,-0.688 0.508,-1.112 -0.247,0.313 -0.49,0.623 -0.728,0.925 -0.26,0.284 -0.512,0.56 -0.754,0.825 -0.479,0.534 -0.833,1.101 -1.075,1.649 -0.415,0.234 -0.392,-0.062 -0.178,-0.323 -0.663,0.987 -0.812,0.36 -1.366,1.216 -0.048,-0.566 1.615,-1.745 2.035,-2.691 0.31,-0.207 0.608,-0.465 0.896,-0.755 0.28,-0.298 0.51,-0.658 0.752,-1.013 0.482,-0.713 0.928,-1.469 1.288,-2.191 0.323,0.114 -0.04,1.26 0.459,0.809 1.02,-1.282 0.729,-1.469 0.96,-2.373 0.605,-0.984 0.548,0.15 1.371,-1.515 l -0.284,1.089 c 0.884,-0.78 0.311,-0.995 0.684,-1.716 -0.205,0.206 -0.299,0.166 -0.697,1.001 -0.204,0.009 0.055,-0.645 0.157,-0.964 0,0 -0.089,0.195 -0.094,0.193 -0.065,-0.445 -0.266,-0.651 0.24,-1.681 0.013,0.771 0.517,-0.781 0.73,-1.018 0.009,0.003 -0.042,0.302 -0.042,0.302 0.169,-0.831 0.391,-1.676 0.484,-2.203 l 0.056,0.06 c 0.024,-0.322 -0.035,-0.558 -0.061,-0.821 -0.047,-0.268 -0.074,-0.563 0.034,-1.008 0.124,0.111 0.332,1.274 0.426,0.25 0.092,0.089 0.1,0.417 0.058,0.837 -0.083,0.412 -0.227,0.912 -0.381,1.354 0.307,-0.88 0.762,-1.274 0.494,-0.143 0.325,-0.25 0.199,-1.076 0.38,-1.662 -0.096,0.094 -0.156,-0.118 -0.244,-0.087 0.359,0.031 0.369,-2.229 0.124,-2.277 l 0.029,1.137 c -0.299,0.038 -0.277,-1.354 -0.507,-0.931 0.291,-0.229 0.235,-0.978 0.219,-1.719 -0.031,-0.744 -0.047,-1.483 0.103,-1.772 l -0.214,0.398 c -0.003,-1.126 -0.1,-2.166 -0.35,-3.172 -0.142,-0.498 -0.285,-1 -0.431,-1.51 -0.067,-0.255 -0.135,-0.513 -0.204,-0.774 -0.085,-0.259 -0.171,-0.521 -0.259,-0.788 0.344,0.708 0.839,0.683 0.876,2.104 -0.227,-2.141 0.393,-0.714 0.533,-1.422 -0.213,-1.711 -0.664,-0.76 -0.937,-1.231 l 0.379,1.114 c -0.484,-0.667 -0.675,-1.725 -0.977,-2.874 -0.358,-1.126 -0.679,-2.402 -1.394,-3.347 0.062,-0.22 0.284,0.391 0.473,0.65 -0.182,-1.066 -0.497,-0.89 -0.869,-1.399 -0.412,-0.99 -1.048,-2.13 -0.366,-1.759 -0.546,-1.074 -0.123,0.224 -0.551,-0.261 l -0.045,-0.233 c 0,0 -0.249,-0.212 -0.498,-0.424 -0.119,-0.108 -0.252,-0.206 -0.356,-0.275 -0.102,-0.071 -0.169,-0.119 -0.169,-0.119 -0.528,-0.869 -1.063,-2.031 -1.153,-2.572 -1.698,-1.74 -1.152,-0.1 -2.461,-1.228 -0.584,-0.785 0.329,-0.077 0.499,-0.111 l -1.166,-1.009 c 0.678,0.07 1.476,1.059 1.731,0.667 -0.651,-0.279 -1.001,-0.544 -1.378,-0.871 -0.382,-0.317 -0.762,-0.731 -1.575,-1.108 l 0.062,0.098 c -0.41,-0.104 -0.931,-0.463 -1.459,-0.869 -0.532,-0.399 -1.129,-0.761 -1.568,-1.007 0.44,0.06 1.451,0.57 2.065,0.993 -0.808,-0.841 -3.43,-2.167 -4.503,-2.144 -0.276,-0.167 -0.707,-0.451 -0.965,-0.641 -0.265,-0.174 -0.342,-0.294 0.139,-0.21 -2.159,-0.852 -1.111,0.208 -2.934,-0.54 l 0.168,-0.287 c -2.009,-1.031 -4.252,-0.606 -6.248,-1.114 l -0.152,0.381 c -0.427,-0.186 -1.335,-0.309 -1.507,-0.469 l 1.063,-0.078 c -0.883,-0.364 -1.05,0.219 -2.137,0.065 0.017,0.118 0.912,0.336 0.909,0.469 1.084,0.021 2.181,0 3.254,0.164 1.068,0.201 2.151,0.317 3.183,0.668 l 1.564,0.442 1.528,0.563 c 1.042,0.323 2.018,0.809 3.06,1.191 -0.127,-0.114 -0.283,-0.248 -0.148,-0.267 0.405,0.27 1.22,0.634 0.993,0.753 l -0.147,-0.057 c 1.019,0.544 1.691,1.419 2.204,1.852 0.512,0.053 1.811,1.492 1.688,0.833 0.016,-0.015 0.385,0.712 0.385,0.712 0.294,0.041 0.347,-0.211 0.751,0.041 0.565,0.563 0.449,0.701 -0.084,0.372 2.11,2.123 4.319,4.889 5.852,7.563 0,0 -0.136,-0.16 -0.271,-0.32 -0.135,-0.159 -0.297,-0.302 -0.297,-0.302 0.273,0.676 1.513,2.235 0.757,1.893 0.457,0.604 0.742,1.584 1.038,2.368 0.32,0.778 0.516,1.415 0.8,1.391 -0.16,0.56 0.064,1.425 0.258,2.438 0.149,1.019 0.511,2.154 0.549,3.194 0.443,-0.384 0.268,1.705 0.43,2.265 -0.209,0.142 -0.235,-0.297 -0.357,-0.77 -0.105,-0.473 -0.197,-0.981 -0.322,-0.991 0.404,1.047 0.19,2.536 0.067,3.844 -0.217,1.303 -0.427,2.435 -0.019,2.987 -0.102,0.243 -0.14,0.237 -0.155,0.144 -0.106,0.401 -0.403,0.893 -0.544,1.273 0.1,0.282 0.398,-0.567 0.211,0.411 -0.232,0.753 -0.375,0.244 -0.573,0.52 -0.13,0.734 -0.404,1.66 -0.587,2.462 -0.219,0.788 -0.43,1.423 -0.304,1.629 -0.291,0.362 -0.688,0.683 -0.54,0.205 -0.35,1.162 -0.751,1.605 -1.049,2.097 -0.319,0.482 -0.634,0.958 -1.308,1.974 0.483,-0.696 -0.046,-0.555 0.746,-1.475 -0.447,0.274 -1.018,0.978 -1.575,1.851 -0.563,0.867 -1.341,1.735 -2.06,2.354 l -0.327,0.767 c -0.827,0.834 -1.093,0.624 -0.58,-0.011 -0.399,0.289 -0.735,0.559 -1.033,0.817 -0.313,0.242 -0.597,0.461 -0.87,0.672 -0.549,0.415 -0.984,0.902 -1.641,1.267 -0.099,0.01 -0.079,-0.083 0.146,-0.198 l -1.851,1.11 c -0.139,0.193 -0.772,0.67 -0.525,0.806 0.159,-0.292 0.513,-0.578 1.58,-1.099 z"
                 id="path1876" />
              <path
                 fill="#cdc8e6"
                 d="m 861.645,421.127 -0.033,0.063 0.077,-0.039 c -0.024,-0.005 -0.03,-0.016 -0.044,-0.024 z"
                 id="path1878" />
              <path
                 fill="#cdc8e6"
                 d="m 876.102,407.206 c -0.16,0.185 -0.262,0.34 -0.333,0.477 0.088,-0.086 0.19,-0.211 0.333,-0.477 z"
                 id="path1880" />
              <path
                 fill="#cdc8e6"
                 d="m 841.414,423.563 c 0.13,0.583 1.35,0.258 2.26,0.64 -0.92,-0.153 -0.767,0.206 -0.682,0.388 0.642,-0.173 0.981,-0.095 1.441,0.076 0.458,0.168 1.038,0.447 2.125,0.516 0.024,0.254 -1.024,0.114 -1.183,0.346 0.308,0.009 0.652,0.019 1.001,0.03 0.35,-0.024 0.705,-0.048 1.036,-0.07 0.653,-0.06 1.184,-0.152 1.321,-0.337 1.009,0.068 1.873,-0.031 2.639,-0.017 0.769,0.015 1.429,-0.082 2.027,-0.207 -1.436,0.367 -0.213,0.438 -1.263,0.896 0.764,-0.298 1.902,-0.741 3.123,-1.217 1.19,-0.583 2.442,-1.126 3.324,-1.799 0.384,0.309 0.495,0.315 0.373,0.768 2.393,-0.595 0.543,-0.555 2.671,-1.417 l -0.987,0.393 c 0.92,-0.584 0.802,-0.969 0.972,-1.36 0,0 -0.582,0.296 -1.164,0.593 -0.29,0.152 -0.581,0.3 -0.814,0.378 -0.228,0.089 -0.38,0.148 -0.38,0.148 -0.043,-0.146 0.326,-0.324 0.738,-0.542 0.405,-0.234 0.872,-0.468 1.074,-0.606 0.535,-0.644 -1.35,0.375 -1.206,0.003 -0.233,0.385 -1.224,0.625 -1.789,0.951 l -0.158,-0.107 c -0.576,0.146 -1.002,0.318 -1.42,0.494 -0.414,0.185 -0.815,0.387 -1.339,0.519 -0.103,-0.019 -0.124,-0.047 -0.112,-0.077 -0.324,0.285 -0.674,0.521 -1.325,0.692 l 0.501,-0.095 c -0.843,0.517 -3.179,1.077 -1.592,1.264 0,0 -0.17,0.018 -0.424,0.045 -0.256,0.002 -0.598,0.004 -0.94,0.007 -0.681,0.005 -1.363,0.01 -1.363,0.01 0.299,-0.426 0.81,-1.06 2.305,-1.202 l 0.155,-0.198 c -1.125,-0.116 -3.163,0.491 -2.422,0.815 -0.569,0.563 -1.621,0.461 -2.752,0.357 -0.569,-0.036 -1.149,-0.182 -1.714,-0.288 -0.566,-0.103 -1.117,-0.168 -1.629,-0.143 -0.084,-0.282 1.016,-0.222 1.509,-0.334 0.583,0.058 0.998,0.116 1.021,0.345 2.523,0.011 -0.427,-0.858 2.335,-0.617 1.364,0.207 -1.688,0.341 0.339,0.483 0,0 0.365,-0.159 0.72,-0.376 0.35,-0.203 0.701,-0.406 0.701,-0.406 -1.226,0.137 -2.339,0.115 -3.344,0.175 -2.778,-0.02 -5.145,-0.573 -6.697,-1.213 -1.585,-0.577 -2.405,-1.142 -2.405,-1.142 0,0 -0.346,-0.162 -0.952,-0.446 -0.625,-0.249 -1.409,-0.807 -2.409,-1.371 -1.917,-1.256 -4.323,-3.203 -6.268,-5.592 -1.996,-2.35 -3.407,-5.132 -4.235,-7.279 -0.204,-0.541 -0.392,-1.036 -0.558,-1.475 -0.122,-0.454 -0.228,-0.849 -0.314,-1.174 -0.175,-0.652 -0.275,-1.024 -0.275,-1.024 -0.326,-1.249 -0.417,-2.127 -0.637,-2.792 -0.185,-0.671 -0.344,-1.151 -0.749,-1.658 -0.061,0.278 -0.053,0.825 -0.066,1.236 -0.019,0.411 0.01,0.682 -0.169,0.421 0.318,0.26 0.608,1.233 0.803,2.602 -0.25,0.198 -0.321,-1.234 -0.332,-0.867 l 0.021,0.266 c -0.155,-0.118 -0.284,-0.344 -0.356,-0.773 -0.04,0.404 -0.037,0.894 0.002,1.417 0.083,0.513 0.215,1.056 0.366,1.578 0.266,1.056 0.784,1.969 1.215,2.401 0.188,1.298 -0.698,-0.67 -1.113,-1.247 0.338,1.091 0.64,2.109 1.018,3.046 0.432,0.913 0.783,1.822 1.275,2.656 0.964,1.679 2.039,3.317 3.601,5.047 0.4,-0.259 0.54,0.151 1.198,0.396 l 0.138,0.409 c -0.069,-0.204 0.583,0.034 0.057,-0.691 1.601,2.081 2.642,1.664 4.138,2.506 l -0.243,0.127 c 1.154,0.853 1.566,1.001 2.677,1.546 1.735,1.594 -1.758,-0.982 -1.541,-0.152 l 0.624,0.263 c -0.437,-0.013 -1.057,0.141 -1.768,-0.167 1.059,0.488 1.758,0.906 2.453,1.402 0.716,0.451 1.5,0.86 2.677,1.27 -0.356,0.11 -2.526,-0.636 -3.068,-0.955 0.723,0.47 2.213,0.905 2.165,1.18 l 0.295,-0.236 c 1.372,0.606 -0.307,0.207 0.05,0.615 1.685,0.654 1.903,0.395 2.041,0.146 0.148,-0.277 0.223,-0.529 1.632,-0.193 z"
                 id="path1882" />
              <path
                 fill="#cdc8e6"
                 d="m 872.36,412.849 c -0.277,0.32 -0.48,0.618 -0.649,0.899 0.224,-0.293 0.445,-0.59 0.649,-0.899 z"
                 id="path1884" />
              <path
                 fill="#cdc8e6"
                 d="m 868.179,418.465 c 0.005,0.06 0,0.121 -0.018,0.183 0.074,-0.107 0.084,-0.172 0.018,-0.183 z"
                 id="path1886" />
              <path
                 fill="#cdc8e6"
                 d="m 867.964,419.299 c -0.228,-10e-4 0.108,-0.31 0.197,-0.652 -0.25,0.411 -1.191,1.137 -0.197,0.652 z"
                 id="path1888" />
              <path
                 fill="#cdc8e6"
                 d="m 820.369,396.006 c 0.088,0.222 0.145,1.155 0.238,0.924 l -0.051,-1.375 z"
                 id="path1890" />
              <path
                 fill="#cdc8e6"
                 d="m 820.952,393.291 0.331,-1.298 c 0,0 -0.08,-0.241 -0.159,-0.482 -0.081,-0.243 -0.151,-0.488 -0.151,-0.488 -0.227,1.431 0.191,0.851 -0.021,2.268 z"
                 id="path1892" />
              <path
                 fill="#cdc8e6"
                 d="m 821.924,389.675 0.033,0.319 c 0.022,-0.28 0.005,-0.346 -0.033,-0.319 z"
                 id="path1894" />
              <path
                 fill="#cdc8e6"
                 d="m 821.749,389.573 -0.193,-0.598 -0.198,1.759 0.229,-0.632 c 0.117,0.018 0.267,-0.382 0.337,-0.427 l -0.069,-0.697 c -0.012,0.165 -0.038,0.495 -0.106,0.595 z"
                 id="path1896" />
              <path
                 fill="#cdc8e6"
                 d="m 822.132,388.135 c -0.046,0.026 -0.092,0.066 -0.137,0.082 0.034,0.024 0.082,-0.01 0.137,-0.082 z"
                 id="path1898" />
              <path
                 fill="#cdc8e6"
                 d="m 823.936,385.276 c -0.258,0.251 -0.127,-0.446 -0.208,-0.596 -0.346,0.57 -0.417,0.922 -0.473,1.251 -0.031,0.341 -0.056,0.657 -0.329,1.171 0.368,-1.773 -0.406,0.532 -0.793,1.033 0.418,-0.232 0.847,-0.779 1.386,-1.983 l -0.141,-0.215 c 0.302,-0.639 0.257,-0.254 0.558,-0.661 z"
                 id="path1900" />
              <path
                 fill="#cdc8e6"
                 d="m 827.149,379.094 -0.39,1.041 c -0.239,0.046 -1.236,1.409 -1.426,1.191 -0.275,0.54 -0.207,0.697 -0.385,1.155 -0.364,0.309 -0.688,0.526 -0.742,1.158 0.707,-1.061 1.034,-1.378 1.28,-1.695 0.264,-0.305 0.446,-0.611 1.154,-1.438 0.027,0.079 -0.145,0.289 -0.316,0.497 l 0.984,-1.028 c -0.249,-0.349 0.885,-1.818 -0.159,-0.881 z"
                 id="path1902" />
              <path
                 fill="#cdc8e6"
                 d="m 828.714,377.676 c -0.756,0.862 -0.946,1.509 -0.417,1.231 0,0 0.355,-0.483 0.71,-0.967 0.179,-0.244 0.358,-0.487 0.493,-0.67 0.133,-0.185 0.242,-0.289 0.242,-0.289 -0.502,0.489 -1.034,1.173 -1.028,0.695 z"
                 id="path1904" />
              <path
                 fill="#cdc8e6"
                 d="m 829.898,376.479 c 0.451,-0.188 1.223,-0.408 1.588,-1.178 -0.923,0.907 -0.79,0.143 -1.588,1.178 z"
                 id="path1906" />
              <path
                 fill="#cdc8e6"
                 d="m 836.739,372.014 c 0,0 -0.131,0.048 -0.328,0.122 -0.197,0.073 -0.464,0.165 -0.71,0.296 -0.504,0.245 -1.008,0.49 -1.008,0.49 -0.566,-0.124 0.838,-0.699 1.371,-1.165 -1.716,0.87 -1.112,0.713 -2.21,1.666 -0.485,0.259 -1.018,0.976 -1.46,1.435 0.523,-0.496 0.965,-0.826 1.346,-1.067 0.406,-0.205 0.748,-0.329 1.062,-0.452 0.642,-0.225 1.108,-0.543 1.937,-1.325 z"
                 id="path1908" />
              <polygon
                 fill="#cdc8e6"
                 points="832.706,373.993 832.599,374.284 833.387,373.531 "
                 id="polygon1910" />
              <path
                 fill="#cdc8e6"
                 d="m 841.749,370.528 c 0.704,0.073 1.284,-0.148 1.894,-0.413 0.613,-0.235 1.271,-0.449 2.028,-0.466 -0.153,0.052 -0.038,0.076 -0.339,0.18 l 1.246,-0.236 0.07,0.107 c -0.106,-0.285 1.203,-0.47 1.771,-0.725 -1.342,-0.244 -0.643,0.398 -1.827,0.118 0.267,-0.147 0.454,-0.358 0.718,-0.48 -0.792,0.178 -0.97,0.375 -1.298,0.602 -0.845,0.162 -0.614,-0.043 -0.693,-0.143 -0.464,0.158 -0.68,0.343 -0.959,0.503 -0.282,0.157 -0.626,0.282 -1.333,0.429 -0.965,-0.018 0.442,-0.532 -1.086,-0.029 0.444,0.126 0.049,0.209 -0.522,0.314 -0.575,0.093 -1.292,0.345 -1.536,0.574 -0.572,0.161 -1.068,0.243 -1.402,0.254 -0.325,0.033 -0.489,-0.009 -0.407,-0.144 0.169,0.319 -0.646,1.057 -1.4,1.534 l 1.674,-1.142 c -0.005,-0.019 0.79,0.146 0.79,0.146 0.475,-0.28 0.908,-0.482 1.346,-0.653 0.219,-0.085 0.439,-0.164 0.669,-0.24 0.236,-0.05 0.481,-0.103 0.742,-0.158 z"
                 id="path1912" />
              <path
                 fill="#cdc8e6"
                 d="m 847.31,368.613 c 0.14,-0.034 0.26,-0.066 0.443,-0.1 -0.177,0.002 -0.317,0.042 -0.443,0.1 z"
                 id="path1914" />
              <polygon
                 fill="#cdc8e6"
                 points="837.717,371.01 838.121,370.72 837.765,370.756 "
                 id="polygon1916" />
              <path
                 fill="#cdc8e6"
                 d="m 848.329,368.259 c -0.276,10e-4 -0.368,0.146 -0.092,0.145 l 0.417,-0.219 z"
                 id="path1918" />
              <polygon
                 fill="#cdc8e6"
                 points="849.567,368.49 850.238,368.77 850.663,368.594 "
                 id="polygon1920" />
              <path
                 fill="#cdc8e6"
                 d="m 872.904,381.442 c -0.354,-0.827 -0.583,-0.571 -0.828,-0.572 0.743,1.123 0.248,-0.136 0.828,0.572 z"
                 id="path1922" />
              <path
                 fill="#cdc8e6"
                 d="m 877.862,397.95 c 0.28,-1.003 -0.095,-1.916 -0.129,-2.899 -0.1,0.9 0.072,2.081 0.129,2.899 z"
                 id="path1924" />
              <path
                 fill="#cdc8e6"
                 d="m 877.599,405.604 c -0.024,-0.275 0.018,-0.631 -0.158,-0.105 l -0.252,-1.097 c -0.53,1.367 0.184,1.184 0.41,1.202 z"
                 id="path1926" />
              <path
                 fill="#cdc8e6"
                 d="m 873.863,413.559 c 0,0 0.15,-0.33 0.295,-0.66 0.143,-0.33 0.286,-0.66 0.286,-0.66 l -0.393,0.62 c 0.016,-0.42 0.064,-0.691 0.194,-1.229 -0.442,0.938 -0.793,1.902 -0.382,1.929 z"
                 id="path1928" />
              <path
                 fill="#cdc8e6"
                 d="m 874.795,410.501 c -0.055,0.146 -0.138,0.3 -0.223,0.462 0.129,-0.103 0.261,-0.14 0.223,-0.462 z"
                 id="path1930" />
              <path
                 fill="#cdc8e6"
                 d="m 874.291,411.441 c -0.018,0.073 -0.03,0.125 -0.045,0.188 0.111,-0.227 0.222,-0.453 0.327,-0.666 -0.1,0.074 -0.21,0.181 -0.282,0.478 z"
                 id="path1932" />
              <path
                 fill="#cdc8e6"
                 d="m 873.018,414.267 c 0,0 -0.356,0.499 -0.713,0.998 -0.172,0.255 -0.361,0.496 -0.519,0.664 -0.15,0.174 -0.25,0.29 -0.25,0.29 0,0 0.711,-0.621 0.692,-0.638 -0.126,-0.36 0.833,-0.803 0.79,-1.314 z"
                 id="path1934" />
              <path
                 fill="#cdc8e6"
                 d="m 863.324,422.448 c 0,0 -0.091,-0.036 -0.181,-0.071 -0.093,-0.041 -0.186,-0.082 -0.186,-0.082 -0.707,0.303 -1.415,0.813 -2.09,1.245 -0.683,0.408 -1.36,0.664 -1.872,0.596 0.703,-0.052 -1.091,0.774 0.671,0.224 0.643,-0.461 2.639,-1.479 3.658,-1.912 z"
                 id="path1936" />
              <path
                 fill="#cdc8e6"
                 d="m 857.939,424.25 c 0.205,-0.175 -0.158,-0.098 -0.377,-0.144 -0.528,0.098 -1.061,0.382 -0.744,0.435 0.318,-0.508 0.647,0.112 1.121,-0.291 z"
                 id="path1938" />
              <path
                 fill="#cdc8e6"
                 d="m 851.042,425.512 c 0.442,-0.029 1.055,-0.091 0.41,-0.139 -1.323,0.085 -0.964,0.421 -1.637,0.666 1.137,0.13 2.08,-0.404 1.227,-0.527 z"
                 id="path1940" />
              <path
                 fill="#cdc8e6"
                 d="m 841.391,422.075 c 0.043,0.31 1.017,0.502 1.258,0.475 -0.32,-0.038 -0.88,-0.246 -1.258,-0.475 z"
                 id="path1942" />
              <path
                 fill="#cdc8e6"
                 d="m 840.501,424.111 0.333,0.186 0.545,-0.282 c 0,0 -0.221,0.033 -0.441,0.065 -0.218,0.016 -0.437,0.031 -0.437,0.031 z"
                 id="path1944" />
              <path
                 fill="#cdc8e6"
                 d="m 833.248,420.829 -0.971,-0.397 c 0,0 0.313,0.22 0.625,0.439 0.152,0.115 0.318,0.211 0.444,0.28 0.125,0.071 0.208,0.119 0.208,0.119 z"
                 id="path1946" />
              <path
                 fill="#cdc8e6"
                 d="m 832.057,419.856 c 0,0 -0.271,-0.196 -0.541,-0.393 -0.271,-0.197 -0.536,-0.4 -0.536,-0.4 -0.009,0.01 0.305,0.37 0.305,0.37 0.467,0.451 0.411,0.161 0.772,0.423 z"
                 id="path1948" />
              <path
                 fill="#cdc8e6"
                 d="m 828.976,417.289 c 0.144,0.098 0.189,0.197 0.231,0.294 l 1.015,0.69 z"
                 id="path1950" />
              <path
                 fill="#cdc8e6"
                 d="m 822.288,398.141 c 0.286,0.27 0.056,-0.863 0.099,-1.211 -0.073,-0.073 -0.381,0.683 -0.099,1.211 z"
                 id="path1952" />
            </g>
          </g>
        </g>
      </g>
    </g>
  </g>
</svg>
