<?xml version="1.0" encoding="UTF-8" standalone="no"?>
<svg
   xmlns:dc="http://purl.org/dc/elements/1.1/"
   xmlns:cc="http://creativecommons.org/ns#"
   xmlns:rdf="http://www.w3.org/1999/02/22-rdf-syntax-ns#"
   xmlns:svg="http://www.w3.org/2000/svg"
   xmlns="http://www.w3.org/2000/svg"
   xmlns:sodipodi="http://sodipodi.sourceforge.net/DTD/sodipodi-0.dtd"
   xmlns:inkscape="http://www.inkscape.org/namespaces/inkscape"
   sodipodi:docname="dugme.svg"
   inkscape:version="1.0 (6e3e5246a0, 2020-05-07)"
   id="svg2318"
   version="1.1"
   viewBox="0 0 55.829056 15.84931"
   height="15.84931mm"
   width="55.829056mm">
  <defs
     id="defs2312">
    <linearGradient
       gradientTransform="matrix(0.26458333,0,0,0.26458333,-373.59805,-250.09172)"
       id="SVGID_1_"
       gradientUnits="userSpaceOnUse"
       x1="848.02832"
       y1="489.48141"
       x2="1059.0352"
       y2="489.48141">
      <stop
         offset="0"
         style="stop-color:#A092C6"
         id="stop1697" />
      <stop
         offset="0.9946"
         style="stop-color:#7A6DA5"
         id="stop1699" />
    </linearGradient>
    <linearGradient
       gradientTransform="matrix(0.26458333,0,0,0.26458333,-373.59805,-250.09172)"
       id="SVGID_2_"
       gradientUnits="userSpaceOnUse"
       x1="824.66412"
       y1="372.23929"
       x2="874.51581"
       y2="422.091">
      <stop
         offset="0"
         style="stop-color:#A092C6"
         id="stop1718" />
      <stop
         offset="0.9946"
         style="stop-color:#7A6DA5"
         id="stop1720" />
    </linearGradient>
    <linearGradient
       gradientTransform="matrix(0.26458333,0,0,0.26458333,-373.59805,-250.09172)"
       id="SVGID_3_"
       gradientUnits="userSpaceOnUse"
       x1="793.5"
       y1="303.41699"
       x2="864"
       y2="303.41699">
      <stop
         offset="0"
         style="stop-color:#A092C6"
         id="stop1727" />
      <stop
         offset="0.9946"
         style="stop-color:#7A6DA5"
         id="stop1729" />
    </linearGradient>
    <linearGradient
       y2="489.48141"
       x2="1059.0352"
       y1="489.48141"
       x1="848.02832"
       gradientUnits="userSpaceOnUse"
       id="SVGID_1_-3"
       gradientTransform="matrix(0.26458333,0,0,0.26458333,-373.15169,-228.95471)">
      <stop
         id="stop1697-6"
         style="stop-color:#A092C6"
         offset="0" />
      <stop
         id="stop1699-7"
         style="stop-color:#7A6DA5"
         offset="0.9946" />
    </linearGradient>
    <linearGradient
       gradientTransform="matrix(0.26458333,0,0,0.26458333,-325.00085,-253.88763)"
       id="SVGID_2_-4"
       gradientUnits="userSpaceOnUse"
       x1="824.66412"
       y1="372.23929"
       x2="874.51581"
       y2="422.091">
      <stop
         offset="0"
         style="stop-color:#A092C6"
         id="stop1718-7" />
      <stop
         offset="0.9946"
         style="stop-color:#7A6DA5"
         id="stop1720-6" />
    </linearGradient>
    <linearGradient
       gradientTransform="matrix(0.26458333,0,0,0.26458333,-171.32896,-200.85598)"
       id="SVGID_1_-5"
       gradientUnits="userSpaceOnUse"
       x1="848.02832"
       y1="489.48141"
       x2="1059.0352"
       y2="489.48141">
      <stop
         offset="0"
         style="stop-color:#A092C6"
         id="stop1697-69" />
      <stop
         offset="0.9946"
         style="stop-color:#7A6DA5"
         id="stop1699-3" />
    </linearGradient>
  </defs>
  <sodipodi:namedview
     inkscape:window-maximized="0"
     inkscape:window-y="38"
     inkscape:window-x="0"
     inkscape:window-height="2076"
     inkscape:window-width="1914"
     showgrid="false"
     inkscape:document-rotation="0"
     inkscape:current-layer="layer1"
     inkscape:document-units="mm"
     inkscape:cy="29.675817"
     inkscape:cx="30.52724"
     inkscape:zoom="2.8284271"
     inkscape:pageshadow="2"
     inkscape:pageopacity="0.0"
     borderopacity="1.0"
     bordercolor="#666666"
     pagecolor="#ffffff"
     id="base" />
  <metadata
     id="metadata2315">
    <rdf:RDF>
      <cc:Work
         rdf:about="">
        <dc:format>image/svg+xml</dc:format>
        <dc:type
           rdf:resource="http://purl.org/dc/dcmitype/StillImage" />
        <dc:title></dc:title>
      </cc:Work>
    </rdf:RDF>
  </metadata>
  <g
     transform="translate(-53.045413,79.272012)"
     id="layer1"
     inkscape:groupmode="layer"
     inkscape:label="Layer 1">
    <g
       transform="matrix(0.26458333,0,0,0.26458333,-373.59805,-250.09173)"
       id="g1708" />
    <g
       transform="matrix(0.26458333,0,0,0.26458333,-373.59805,-250.09173)"
       id="g1716" />
    <path
       style="fill:url(#SVGID_1_-5);stroke-width:0.264583"
       fill="url(#SVGID_1_)"
       d="m 102.17717,-79.272012 c -0.003,0 -0.005,2.6e-4 -0.007,2.6e-4 v -2.6e-4 H 69.113943 l -9.36466,0.0513 v 2.6e-4 c -0.003,0 -0.005,-2.6e-4 -0.007,-2.6e-4 -3.69861,0 -6.69687,3.51129 -6.69687,7.84305 0,4.33149 2.99826,7.84278 6.69687,7.84278 0.002,0 2.57413,0.11218 2.57651,0.11218 l -2.56911,-0.10425 h 28.725282 l 13.695365,-0.0513 v -0.008 c 0.003,0 0.004,2.6e-4 0.007,2.6e-4 3.69861,0 6.69714,-3.51128 6.69714,-7.84278 0,-4.33149 -2.99826,-7.84278 -6.69687,-7.84278 z"
       id="path1702" />
    <g
       transform="matrix(0.26458333,0,0,0.26458333,-171.32896,-200.85598)"
       id="g2074">
      <g
         id="g2072">
        <g
           id="g2070">
          <g
             id="g2068">
            <path
               fill="#cdc8e6"
               d="m 1031.789,512.374 c 0.346,-0.112 0.896,-0.292 1.138,-0.402 -0.479,0.127 -0.871,0.255 -1.138,0.402 z"
               id="path1964" />
            <path
               fill="#cdc8e6"
               d="m 957.327,512.626 c -0.16,0.004 -0.319,0.008 -0.476,0.012 0.092,0.012 0.169,0.021 0.244,0.031 z"
               id="path1966" />
            <path
               fill="#cdc8e6"
               d="m 957.095,512.669 -0.83,0.153 c 1.258,-0.059 1.19,-0.105 0.83,-0.153 z"
               id="path1968" />
            <path
               fill="#cdc8e6"
               d="m 1039.271,508.185 c 0.69,-0.485 1.329,-1.023 1.857,-1.569 0,0 -0.441,0.415 -0.905,0.809 -0.466,0.39 -0.952,0.76 -0.952,0.76 z"
               id="path1970" />
            <path
               fill="#cdc8e6"
               d="m 1030.753,510.88 c -0.096,-0.011 -0.267,-0.002 -0.576,0.021 0.182,0.01 0.383,-0.001 0.576,-0.021 z"
               id="path1972" />
            <path
               fill="#cdc8e6"
               d="m 1009.065,466.105 c 0.124,-0.02 0.241,-0.038 0.361,-0.057 -0.185,0.015 -0.309,0.033 -0.361,0.057 z"
               id="path1974" />
            <path
               fill="#cdc8e6"
               d="m 1002.688,466.328 c -0.535,-0.013 -1.003,-0.012 -1.462,-0.008 l -0.088,0.033 c 0.248,0.043 1.115,-0.003 1.55,-0.025 z"
               id="path1976" />
            <path
               fill="#cdc8e6"
               d="m 1005.23,466.539 -1.305,0.012 c 0.474,0.005 0.906,0 1.305,-0.012 z"
               id="path1978" />
            <path
               fill="#cdc8e6"
               d="m 962.917,468.3 -0.197,0.155 c 0.181,-0.065 0.23,-0.115 0.197,-0.155 z"
               id="path1980" />
            <path
               fill="#cdc8e6"
               d="m 1010.492,465.917 c -0.381,0.032 -0.724,0.079 -1.065,0.131 0.577,-0.041 1.507,-0.051 1.065,-0.131 z"
               id="path1982" />
            <path
               fill="#cdc8e6"
               d="m 1031.593,512.487 c 0.052,-0.042 0.128,-0.077 0.196,-0.113 -0.226,0.073 -0.351,0.124 -0.196,0.113 z"
               id="path1984" />
            <path
               fill="#cdc8e6"
               d="m 1043.863,504.317 -0.086,0.088 c -0.357,0.405 -0.214,0.253 0.086,-0.088 z"
               id="path1986" />
            <path
               fill="#cdc8e6"
               d="m 922.462,512.68 -2.632,0.046 c 2.013,0.055 2.629,0.023 2.632,-0.046 z"
               id="path1988" />
            <path
               fill="#cdc8e6"
               d="m 1032.654,467.281 c 0.405,0.35 -0.431,0.116 -1.365,-0.062 -0.936,-0.183 -1.97,-0.304 -1.87,-0.065 1.776,0.111 3.11,0.385 3.831,0.842 -1.449,-0.186 -3.579,-0.798 -4.32,-0.465 0,0 0.654,0.027 1.31,0.093 0.655,0.06 1.307,0.165 1.307,0.165 1.593,0.562 -0.715,0.334 0.798,0.662 1.113,-0.001 2.915,0.624 4.564,1.563 1.665,0.925 3.146,2.145 4.094,2.863 l -0.711,-0.481 c 0,0 0.701,0.591 1.344,1.236 0.647,0.643 1.231,1.335 1.231,1.335 0.019,0.035 -0.014,0.013 -0.01,0.033 0.064,0.023 0.129,0.048 0.184,0.051 0.819,1.217 2.397,3.385 3.684,6.061 0.38,0.439 1.358,2.618 1.77,4.985 0.466,2.357 0.354,4.8 0.402,5.498 0.027,-1.265 0.043,-2.338 -0.022,-3.917 l 0.381,0.216 c 0.104,1.44 -0.02,1.488 -0.064,1.519 -0.064,0.032 -0.058,0.043 0,1.419 0.253,-0.227 0.308,-1.239 0.174,-2.427 -0.118,-1.192 -0.449,-2.536 -0.655,-3.52 0.273,0.688 0.576,1.675 0.736,2.933 -0.305,-4.078 -1.85,-7.903 -3.84,-9.932 -0.572,-1.006 -0.086,-0.685 0.439,0.013 -0.944,-1.159 -1.246,-1.598 -1.495,-2.027 -0.257,-0.417 -0.475,-0.817 -1.466,-1.631 0.468,0.143 1.613,1.212 2.67,2.636 1.08,1.41 2.016,3.17 2.628,4.326 0.588,1.853 1.187,3.995 1.468,6.263 0.29,2.262 0.259,4.638 -0.15,6.768 -0.317,0.095 -0.166,-2.889 -0.6,-1.265 -0.435,2.005 -0.743,2.976 -0.9,3.776 -0.179,0.792 -0.247,1.402 -0.674,2.513 -0.722,1.31 -0.919,1.283 -1.165,1.476 -0.282,0.169 -0.559,0.597 -1.984,2.408 0,0 0.392,-0.565 0.737,-1.155 0.352,-0.587 0.661,-1.193 0.661,-1.193 -0.897,0.984 -1.244,1.485 -1.506,1.979 -0.268,0.484 -0.456,0.951 -1.183,1.647 0.52,-0.412 0.685,-0.275 2.075,-2.133 0.294,-0.083 -0.724,1.391 -1.302,2.029 l 0.373,-0.403 c -0.236,0.445 -0.363,0.771 -0.713,1.24 -0.354,0.462 -0.915,1.094 -2.127,1.996 0.639,-0.709 0.153,-0.357 -0.593,0.174 -0.748,0.532 -1.802,1.191 -2.156,1.317 l 0.623,-0.456 c -1.761,1.268 -3.862,2.119 -5.148,2.592 l 0.088,-0.103 c -1.51,0.597 -2.032,1.149 -4.432,1.437 0.245,-0.149 2.941,-1.038 0.383,-0.519 0.335,-0.238 3.153,-0.769 5.339,-1.646 -1.101,0.414 -1.976,0.562 -2.218,0.536 -0.246,-0.037 0.141,-0.213 1.459,-0.709 -0.799,0.033 -2.477,0.974 -3.988,1.107 0.279,0.031 -0.179,0.209 -0.054,0.27 -0.072,-0.168 -1.428,0.074 -2.808,0.213 -1.368,0.12 -2.811,0.3 -2.85,0.434 0,0 0.714,-0.076 1.427,-0.151 0.706,-0.054 1.402,-0.141 1.402,-0.141 0.245,0.293 -3.314,0.574 -2.175,0.711 -1.133,-0.343 -5.738,0.246 -8.024,0.239 v -0.311 c 0.435,0.002 0.781,0.025 1.014,0.077 l -1.018,-0.197 -0.305,-0.059 0.313,0.583 0.016,0.029 h -0.016 l -0.01,-0.557 c 3.122,-0.03 5.958,-0.24 8.826,-0.476 l 0.016,0.919 c -2.503,0.122 -5.032,0.263 -7.791,0.314 2.036,-0.144 2.206,-0.643 5.851,-0.471 -5.566,-0.098 -1.638,-0.496 -3.354,-0.742 -4.338,-0.185 -2.253,0.463 -3.598,0.619 l 3.022,-0.09 c -3.886,0.577 -11.25,-0.127 -17.256,0.233 -0.444,-0.151 1.229,-0.086 2.041,-0.144 -2.695,-0.299 -2.616,0.061 -4.243,0.176 -2.789,-0.049 -6.144,-0.18 -4.422,-0.544 -3.065,-0.091 0.327,0.221 -1.307,0.335 l -0.57,-0.082 -3.239,0.41 c -2.659,-0.118 -5.887,-0.319 -7.075,-0.664 -6.211,0.07 -2.165,0.823 -6.698,0.958 -2.539,-0.188 0.487,-0.279 0.73,-0.418 l -4.009,0.037 c 1.435,-0.406 4.665,-0.205 4.418,-0.676 -3.352,0.479 -4.533,0.135 -9.036,0.45 l 0.282,0.042 c -1.998,0.324 -6.621,0.098 -9.241,0.16 1.066,-0.197 3.968,-0.218 5.886,-0.291 -2.942,-0.159 -10.386,-0.004 -12.923,0.417 -1.678,-0.065 -5.313,-0.236 -2.86,-0.41 -5.974,-0.07 -2.493,0.603 -7.648,0.476 l 0.204,-0.32 c -5.646,-0.459 -11.125,0.415 -16.476,-0.005 l -0.333,0.388 c -1.15,-0.168 -3.521,-0.253 -3.968,-0.406 l 2.739,-0.123 c -2.291,-0.335 -2.7,0.302 -5.519,0.063 0.024,0.118 2.352,0.391 2.351,0.522 11.454,-0.189 22.801,0.344 34.389,-0.042 -0.435,-0.048 -0.957,-0.101 -0.662,-0.176 1.262,0.094 3.594,-0.008 3.229,0.201 l -0.413,0.029 c 3.026,-0.09 5.767,0.39 7.57,0.385 1.183,-0.266 6.255,0.111 4.906,-0.344 l 1.994,0.288 c 0.663,-0.168 0.332,-0.39 1.563,-0.475 2.083,0.037 2.123,0.216 0.49,0.332 7.93,0.176 17.34,0.127 25.482,-0.017 l -2.176,0.213 c 1.959,0.106 7.118,-0.377 5.441,0.168 3.968,-0.217 10.839,0.155 11.121,-0.413 2.014,0.421 6.594,0.338 11.106,0.239 -0.012,-0.707 -0.023,-1.416 -0.035,-2.125 -1.372,0.073 -2.736,0.146 -4.021,0.214 0.77,0.366 -2.68,0.327 -4.801,0.445 l 0.023,1.396 c 0.498,-0.029 0.923,-0.066 1.204,-0.119 0.295,0.133 -0.323,0.246 -1.204,0.348 l -0.031,-1.854 c 1.391,-0.159 3.445,-0.292 3.494,-0.447 -1.042,0.142 -2.232,0.235 -3.499,0.299 l 0.036,2.15 c 2.81,-0.149 5.979,-0.157 8.691,-0.233 2.835,0.038 5.196,-0.532 6.078,-1.16 0.689,-0.141 0.71,-0.106 0.485,-0.008 1.095,-0.282 2.572,-0.629 3.623,-1.059 0.543,-0.432 -1.715,0.507 0.72,-0.674 1.922,-0.958 0.965,-0.166 1.811,-0.491 1.754,-1.131 3.829,-2.865 5.264,-4.592 1.458,-1.71 2.305,-3.323 2.325,-3.714 0.724,-0.961 1.491,-2.019 0.922,-0.784 1.417,-2.965 1.771,-4.508 2.18,-6.029 0.331,-1.529 0.731,-3.128 0.456,-6.426 0.074,1.15 0.163,1.439 0.24,1.861 0.067,0.418 0.15,0.982 -0.129,2.644 0.449,-1.266 0.621,-3.9 0.061,-6.768 -0.521,-2.88 -1.813,-5.881 -3.122,-8.205 0,0 -0.356,-0.414 -0.733,-0.804 -0.373,-0.393 -0.766,-0.762 -0.766,-0.762 -0.997,-1.252 -1.556,-1.892 -1.6,-2.083 -0.056,-0.181 0.404,0.095 1.188,0.928 -1.708,-2.189 -3.4,-3.547 -5.037,-4.617 -1.65,-1.061 -3.28,-1.845 -5.264,-2.573 -0.223,-0.124 -0.016,-0.132 0.643,0.143 0,0 -1.426,-0.576 -2.916,-0.951 -1.485,-0.395 -3.011,-0.584 -3.011,-0.584 -0.626,-0.027 -2.822,0.04 -2.38,0.293 0.739,-0.136 2.068,-0.332 5.256,0.558 z"
               id="path1990" />
            <path
               fill="#cdc8e6"
               d="m 1027.4,466.725 -0.159,0.037 0.235,0.007 c -0.051,-0.017 -0.051,-0.03 -0.076,-0.044 z"
               id="path1992" />
            <path
               fill="#cdc8e6"
               d="m 1042.001,505.289 c 0.468,-0.316 0.813,-0.606 1.089,-0.867 -0.233,0.162 -0.527,0.402 -1.089,0.867 z"
               id="path1994" />
            <path
               fill="#cdc8e6"
               d="m 972.768,467.191 c 0.733,0.533 3.53,-0.086 6.067,0.057 -2.409,0.081 -1.803,0.391 -1.494,0.546 2.982,-0.688 3.651,0.137 9.162,-0.005 0.119,0.224 -2.54,0.26 -2.852,0.508 3.031,-0.174 7.678,-0.266 8.359,-0.649 5.143,-0.003 8.797,0.165 11.895,0.113 -3.722,0.137 -0.688,0.38 -3.415,0.697 3.774,-0.43 12.21,-0.929 17.726,-1.45 0.672,0.425 0.918,0.47 0.234,0.851 6.191,0.309 1.801,-0.383 7.683,-0.231 l -2.719,-0.086 c 2.774,-0.112 2.923,-0.518 3.827,-0.779 l -6.917,0.02 c 0.065,-0.291 4.342,-0.228 5.634,-0.296 2.056,-0.338 -3.707,-0.265 -2.955,-0.535 -0.998,0.225 -3.719,0.137 -5.456,0.229 l -0.308,-0.157 c -3.213,-0.176 -5.018,0.206 -7.923,0.186 -0.26,-0.046 -0.3,-0.078 -0.251,-0.104 -1.02,0.17 -2.058,0.379 -3.835,0.434 l 1.354,-0.013 c -2.481,0.36 -8.615,0.567 -4.595,0.989 l -6.996,-0.149 c 0.783,-0.403 2.19,-1.019 6.231,-1.046 l 0.472,-0.17 c -3.026,-0.243 -8.546,0.277 -6.57,0.633 -3.049,0.972 -10.718,0.033 -15.863,0.44 -0.362,-0.267 2.483,-0.372 3.731,-0.558 1.546,-0.031 2.655,-0.036 2.778,0.187 6.63,-0.148 -1.347,-0.844 6.081,-0.75 3.649,0.136 -4.467,0.427 0.925,0.465 l 3.848,-0.728 c -3.343,-0.002 -6.361,0.135 -9.049,0.218 -14.927,0.488 -25.475,0.074 -25.475,0.074 l -65.792,0.243 c -6.88,0.104 -9.356,0.073 -12.083,0.805 1.422,0.149 5.634,0.082 4.206,0.336 0.742,-0.273 3.35,-0.421 6.939,-0.396 0.368,0.266 -3.289,0.129 -2.363,0.192 l 0.682,0.019 c -0.37,0.136 -0.994,0.229 -2.104,0.235 4.018,0.404 11.573,0.317 14.429,-0.19 3.273,0.273 -2.233,0.415 -3.91,0.626 11.512,0.206 19.314,0.163 30.955,0.189 0.188,-0.471 1.183,-0.298 2.792,-0.62 l 0.99,0.174 c -0.5,-0.086 1.123,-0.409 -1.165,-0.508 6.675,0.366 7.927,-0.626 12.516,-0.83 l -0.32,0.248 c 3.786,-0.043 4.9,-0.049 8.181,-0.179 6.066,0.46 -5.329,0.074 -3.661,0.669 l 1.734,-0.099 c -0.99,0.229 -2.117,0.639 -4.035,0.806 5.824,-0.39 8.355,0.156 14.678,-0.147 -0.747,0.272 -6.442,0.482 -8,0.513 2.137,0.027 5.966,-0.169 6.145,0.082 l 0.433,-0.341 c 3.771,-0.043 -0.499,0.316 0.732,0.533 8.919,-0.048 1.19,-1.103 8.687,-1.301 z"
               id="path1996" />
            <path
               fill="#cdc8e6"
               d="m 1049.535,490.661 c 0.076,-1.081 0.021,-2.013 -0.086,-2.843 0.083,0.942 0.105,1.892 0.086,2.843 z"
               id="path1998" />
            <path
               fill="#cdc8e6"
               d="m 1042.859,475 c -0.095,-0.029 -0.198,-0.078 -0.315,-0.144 0.237,0.193 0.349,0.258 0.315,0.144 z"
               id="path2000" />
            <path
               fill="#cdc8e6"
               d="m 1041.31,474.179 c -0.207,-0.388 0.604,0.313 1.234,0.678 -0.844,-0.737 -3.042,-2.488 -1.234,-0.678 z"
               id="path2002" />
            <path
               fill="#cdc8e6"
               d="m 878.45,468.517 c 0.498,-0.181 2.746,-0.322 2.192,-0.388 0,0 -0.833,0.027 -1.658,0.119 -0.826,0.083 -1.64,0.236 -1.64,0.236 0,0 0.277,0.005 0.554,0.01 0.276,0.011 0.552,0.023 0.552,0.023 z"
               id="path2004" />
            <path
               fill="#cdc8e6"
               d="m 871.943,469.729 c 0,0 -0.769,0.274 -1.516,0.609 -0.75,0.329 -1.473,0.719 -1.473,0.719 0,0 -0.414,0.378 -0.805,0.77 -0.391,0.395 -0.757,0.802 -0.757,0.802 1.404,-0.998 1.806,-1.263 2.179,-1.582 0.389,-0.289 0.759,-0.637 2.372,-1.318 z"
               id="path2006" />
            <path
               fill="#cdc8e6"
               d="m 864.193,474.608 0.458,-0.606 c -0.466,0.517 -0.54,0.65 -0.458,0.606 z"
               id="path2008" />
            <path
               fill="#cdc8e6"
               d="m 864.241,474.84 c 0,0 -0.157,0.29 -0.315,0.579 -0.147,0.292 -0.295,0.583 -0.295,0.583 0,0 0.636,-0.839 1.363,-1.609 0.719,-0.777 1.521,-1.479 1.521,-1.479 0,0 -0.326,0.244 -0.651,0.489 -0.317,0.256 -0.634,0.513 -0.634,0.513 -0.102,-0.078 -0.893,0.618 -1.036,0.693 0,0 -0.234,0.334 -0.468,0.669 -0.22,0.341 -0.441,0.682 -0.441,0.682 0.231,-0.32 0.726,-0.952 0.956,-1.12 z"
               id="path2010" />
            <path
               fill="#cdc8e6"
               d="m 861.944,477.665 c 0.081,-0.06 0.179,-0.147 0.25,-0.181 -0.014,-0.048 -0.112,0.024 -0.25,0.181 z"
               id="path2012" />
            <path
               fill="#cdc8e6"
               d="m 858.072,485.011 c 0.302,-0.807 0.104,0.944 0.225,1.203 0.336,-1.608 0.512,-2.448 0.681,-3.258 0.181,-0.798 0.357,-1.569 1.07,-2.846 -0.823,2.095 -0.575,1.747 -0.095,0.716 0.49,-1.032 1.482,-2.631 1.991,-3.161 -0.705,0.534 -1.947,1.767 -3.19,4.943 l 0.081,0.414 c -0.506,1.717 -0.369,0.778 -0.763,1.989 z"
               id="path2014" />
            <path
               fill="#cdc8e6"
               d="m 861.865,501.661 c 0,0 -0.442,-0.495 -0.849,-1.025 -0.41,-0.527 -0.79,-1.083 -0.79,-1.083 -0.043,-0.234 -0.541,-1.301 -0.868,-2.339 -0.336,-1.036 -0.515,-2.024 -0.333,-1.967 -0.418,-1.407 -0.584,-1.618 -0.854,-2.798 0.024,-1.144 0.08,-1.963 -0.12,-3.408 -0.09,1.573 -0.019,2.645 0.045,3.44 0.069,0.797 0.143,1.324 0.225,1.822 0.196,0.984 0.285,1.912 1.371,4.464 -0.113,-0.081 -0.4,-0.719 -0.634,-1.369 0,0 0.284,0.864 0.65,1.702 0.355,0.842 0.792,1.649 0.792,1.649 0.25,0.05 1.001,1.059 1.536,1.62 0.54,0.559 0.739,0.756 -0.171,-0.708 z"
               id="path2016" />
            <path
               fill="#cdc8e6"
               d="m 865.146,505.73 c -1.079,-0.95 -1.872,-1.739 -2.325,-2.118 -0.45,-0.381 -0.579,-0.34 -0.192,0.284 0,0 1.058,1.161 2.269,2.142 1.197,1 2.523,1.807 2.523,1.807 -1.521,-0.99 -3.15,-2.501 -2.275,-2.115 z"
               id="path2018" />
            <path
               fill="#cdc8e6"
               d="m 868.551,508.251 c 0.87,0.727 2.429,1.951 4.444,2.283 -1.572,-0.525 -1.916,-0.846 -2.275,-1.09 -0.35,-0.272 -0.718,-0.469 -2.169,-1.193 z"
               id="path2020" />
            <path
               fill="#cdc8e6"
               d="m 888.788,511.93 -5.722,-0.229 c -1.062,-0.417 2.74,-0.122 4.493,-0.301 -4.863,-0.106 -3.316,0.051 -6.986,0.273 -1.38,-0.008 -3.548,-0.006 -5.184,-0.27 3.675,0.602 5.635,0.537 7.351,0.709 1.721,0.122 3.224,0.189 6.048,-0.182 z"
               id="path2022" />
            <path
               fill="#cdc8e6"
               d="m 877.405,511.252 -0.668,0.07 c 0,0 0.677,0.083 1.355,0.118 0.678,0.042 1.356,0.042 1.356,0.042 0,0 -0.514,-0.034 -1.024,-0.093 -0.512,-0.056 -1.019,-0.137 -1.019,-0.137 z"
               id="path2024" />
            <path
               fill="#cdc8e6"
               d="m 902.321,512.43 c 3.441,0.502 6.588,-0.256 10.515,-0.03 -0.416,0.027 -0.123,0.069 -0.943,0.124 l 3.316,-0.039 0.155,0.111 c -0.196,-0.292 3.239,-0.399 4.712,-0.62 -3.397,-0.323 -1.718,0.359 -4.702,0.01 0.719,-0.131 1.24,-0.331 1.927,-0.437 -2.032,0.141 -2.54,0.313 -3.447,0.476 -2.212,0.025 -1.548,-0.14 -1.714,-0.251 -2.458,0.164 -2.497,0.593 -6.253,0.479 -2.416,-0.266 1.427,-0.4 -2.702,-0.308 2.041,0.474 -4.169,-0.088 -5.764,0.202 -3.071,-0.101 -5.075,-0.394 -4.419,-0.56 0.083,0.361 -2.622,0.663 -4.958,0.758 l 5.2,-0.285 1.755,0.432 c 2.864,-0.19 4.953,-0.147 7.729,-0.089 z"
               id="path2026" />
            <path
               fill="#cdc8e6"
               d="m 917.301,511.55 c 0.36,-0.023 0.671,-0.043 1.135,-0.073 -0.448,-0.01 -0.807,0.022 -1.135,0.073 z"
               id="path2028" />
            <polygon
               fill="#cdc8e6"
               points="892.143,511.461 893.373,511.379 892.515,511.255 "
               id="polygon2030" />
            <path
               fill="#cdc8e6"
               d="m 919.909,511.256 c -0.691,-0.015 -0.938,0.125 -0.244,0.139 l 1.063,-0.194 z"
               id="path2032" />
            <polygon
               fill="#cdc8e6"
               points="923.019,511.537 924.736,511.789 925.799,511.595 "
               id="polygon2034" />
            <path
               fill="#cdc8e6"
               d="m 993.564,511.795 c -2.252,-0.148 -2.042,0.143 -2.412,0.353 3.473,0.06 0.079,-0.251 2.412,-0.353 z"
               id="path2036" />
            <path
               fill="#cdc8e6"
               d="m 1020.257,511.632 c -0.885,-0.035 -1.74,-0.012 -2.585,0.035 0.01,0.422 0.014,0.844 0.021,1.262 1.57,-0.083 3.103,-0.252 4.725,-0.301 -1.42,-0.046 -3.143,0.013 -4.731,0.116 0,-0.303 -0.01,-0.597 -0.015,-0.892 0.937,-0.062 1.828,-0.14 2.585,-0.22 z"
               id="path2038" />
            <path
               fill="#cdc8e6"
               d="m 1037.72,507.396 c -0.454,0.371 -1.15,0.807 -0.016,0.217 0,0 -0.428,0.401 -0.886,0.779 -0.453,0.382 -0.937,0.738 -0.937,0.738 1.635,-0.659 2.117,-1.138 2.195,-1.37 0.077,-0.241 -0.254,-0.295 -0.356,-0.364 z"
               id="path2040" />
            <path
               fill="#cdc8e6"
               d="m 1047.872,491.206 c 0,0 -0.01,0.804 -0.081,1.608 -0.066,0.805 -0.212,1.604 -0.212,1.604 0,0 0.102,-0.406 0.182,-0.816 0.074,-0.412 0.148,-0.824 0.148,-0.824 0.073,0.85 0.066,1.457 -0.109,2.709 0.602,-2.409 0.471,-4.751 0.072,-4.281 z"
               id="path2042" />
            <path
               fill="#cdc8e6"
               d="m 1046.854,498.319 c 0.15,-0.341 0.301,-0.731 0.447,-1.143 -0.193,0.32 -0.339,0.495 -0.447,1.143 z"
               id="path2044" />
            <path
               fill="#cdc8e6"
               d="m 1047.729,495.923 c 0.027,-0.171 0.047,-0.289 0.07,-0.438 -0.141,0.579 -0.312,1.155 -0.499,1.69 0.138,-0.232 0.305,-0.555 0.429,-1.252 z"
               id="path2046" />
            <path
               fill="#cdc8e6"
               d="m 1048.156,488.789 c 0,0 -0.07,-1.406 -0.355,-2.78 -0.264,-1.378 -0.737,-2.699 -0.737,-2.699 0,0 0.149,0.512 0.267,1.03 0.122,0.518 0.21,1.04 0.21,1.04 0.446,0.392 0.272,2.57 0.615,3.409 z"
               id="path2048" />
            <path
               fill="#cdc8e6"
               d="m 1029.442,468.826 -0.556,-0.375 c -1.82,-0.226 -3.985,0.018 -5.948,0.079 -1.96,0.088 -3.726,0.124 -4.87,-0.133 1.673,0.2 -3.163,0.338 1.365,0.447 0.93,-0.135 2.786,-0.204 4.752,-0.229 0.973,-0.01 2.016,-0.017 2.903,-0.001 0.894,0.025 1.712,0.112 2.354,0.212 z"
               id="path2050" />
            <path
               fill="#cdc8e6"
               d="m 1015.474,468.13 c 0.624,-0.09 -0.303,-0.157 -0.802,-0.247 -1.357,-0.043 -2.843,0.093 -2.104,0.227 1.118,-0.403 1.481,0.268 2.906,0.02 z"
               id="path2052" />
            <path
               fill="#cdc8e6"
               d="m 997.831,468.079 c 1.11,-0.001 2.66,-0.024 1.051,-0.113 -3.342,0.003 -2.476,0.361 -4.154,0.563 2.777,0.2 5.204,-0.274 3.103,-0.45 z"
               id="path2054" />
            <path
               fill="#cdc8e6"
               d="m 971.553,465.765 c 0.37,0.267 3.03,0.229 3.649,0.137 -0.868,0.049 -2.476,-0.031 -3.649,-0.137 z"
               id="path2056" />
            <polygon
               fill="#cdc8e6"
               points="970.957,467.985 971.896,468.047 973.01,467.638 "
               id="polygon2058" />
            <polygon
               fill="#cdc8e6"
               points="950.953,468.206 948.411,468.466 952.192,468.423 "
               id="polygon2060" />
            <path
               fill="#cdc8e6"
               d="m 947.118,468.137 -3.343,0.019 1.173,0.105 c 1.611,0.08 1.055,-0.118 2.17,-0.124 z"
               id="path2062" />
            <path
               fill="#cdc8e6"
               d="m 937.086,468.192 c 0.428,-0.025 0.684,0.018 0.927,0.062 l 3.031,-0.173 z"
               id="path2064" />
            <path
               fill="#cdc8e6"
               d="m 883.857,466.51 c 0.731,-0.271 -2.245,-0.101 -3.258,-0.16 -0.098,0.066 1.82,0.416 3.258,0.16 z"
               id="path2066" />
          </g>
        </g>
      </g>
    </g>
  </g>
</svg>
